<svg width="360" height="201" viewBox="0 0 360 201" fill="none" xmlns="http://www.w3.org/2000/svg">
<path opacity="0.4" d="M360 0L359.459 0.624421C330.478 34.0635 290.331 55.8286 246.495 61.8659C236.184 63.286 225.77 63.821 215.368 63.4651L131.118 60.582C110.154 59.8646 89.1979 62.2385 68.9254 67.6274L46.8654 73.4915C29.5237 78.1013 13.4837 86.6606 0 98.5V183H360V0Z" fill="#BDD1E0"/>
<path opacity="0.4" d="M360 60L332.298 50.2587C320.464 46.0974 308.232 43.1704 295.797 41.5246L293.217 41.1832C262.633 37.1352 231.522 41.3636 203.128 53.4277L185.22 61.036C162.363 70.7474 136.966 72.7541 112.867 66.7528L70.7717 56.27C42.1504 49.1425 12.4891 63.2792 0 90V174.5H360V60Z" fill="#BDD1E0"/>
<path d="M360 36.5C343.394 60.1796 315.043 72.7197 286.351 69.0763L265.83 66.4705C247.876 64.1907 229.638 66.2855 212.668 72.5766L187.736 81.8198C154.655 94.084 118.024 92.4741 86.146 77.355C61.6541 65.7388 34.1599 62.0132 7.4599 66.6926L0 68V201H360V36.5Z" fill="url(#paint0_linear)"/>
<defs>
<linearGradient id="paint0_linear" x1="180" y1="94" x2="176.5" y2="181.5" gradientUnits="userSpaceOnUse">
<stop stop-color="#BDD1E0"/>
<stop offset="1" stop-color="#BDD1E0" stop-opacity="0"/>
</linearGradient>
</defs>
</svg>
