<?xml version="1.0" encoding="UTF-8" standalone="no"?>
<!-- Generator: Adobe Illustrator 15.0.0, SVG Export Plug-In . SVG Version: 6.00 Build 0)  -->

<svg
   version="1.1"
   id="Layer_1"
   x="0px"
   y="0px"
   width="360px"
   height="66px"
   viewBox="0 0 360 66"
   enable-background="new 0 0 360 66"
   xml:space="preserve"
   sodipodi:docname="pb_ornament_undangan.svg"
   inkscape:version="1.4 (e7c3feb100, 2024-10-09)"
   xmlns:inkscape="http://www.inkscape.org/namespaces/inkscape"
   xmlns:sodipodi="http://sodipodi.sourceforge.net/DTD/sodipodi-0.dtd"
   xmlns="http://www.w3.org/2000/svg"
   xmlns:svg="http://www.w3.org/2000/svg"><defs
   id="defs4" /><sodipodi:namedview
   id="namedview4"
   pagecolor="#ffffff"
   bordercolor="#000000"
   borderopacity="0.25"
   inkscape:showpageshadow="2"
   inkscape:pageopacity="0.0"
   inkscape:pagecheckerboard="0"
   inkscape:deskcolor="#d1d1d1"
   inkscape:zoom="1.5875"
   inkscape:cx="142.3622"
   inkscape:cy="106.45669"
   inkscape:window-width="1342"
   inkscape:window-height="991"
   inkscape:window-x="26"
   inkscape:window-y="23"
   inkscape:window-maximized="0"
   inkscape:current-layer="Layer_1" />
<path
   display="none"
   fill="#91A782"
   d="M0,17.5L91.5,0L360,50.5v15H0V17.5z"
   id="path1" />
<path
   fill="#91A782"
   d="M360,170.5H0v-133l7.461-1.307c26.699-4.68,54.193-0.955,78.686,10.662  c31.878,15.119,68.509,16.729,101.59,4.465l24.932-9.244c16.971-6.291,35.208-8.385,53.162-6.105l20.521,2.605  C315.043,42.22,343.394,29.68,360,6V170.5z"
   id="path2"
   style="fill:#ecdbd0;fill-opacity:1" />
<path
   opacity="0.4"
   fill="#91A782"
   enable-background="new    "
   d="M361.649,122.167H1V65.756  c13.508-7.903,29.577-13.616,46.95-16.695l22.098-3.915c20.311-3.596,41.304-5.18,62.305-4.702l84.403,1.925  c10.421,0.238,20.854-0.119,31.184-1.068c43.914-4.03,84.135-18.559,113.167-40.883L361.649,0V122.167z"
   id="path3"
   style="fill:#ecdbd0;fill-opacity:1" />
<path
   opacity="0.4"
   fill="#91A782"
   enable-background="new    "
   d="M354.531,173.5H-3.441V76.583  c12.419-30.646,41.913-46.86,70.374-38.687l41.857,12.024c23.963,6.883,49.218,4.582,71.945-6.558l17.807-8.726  c28.234-13.836,59.17-18.687,89.583-14.043l5.563,0.849c10.382,1.585,20.634,4.146,30.652,7.659L360,41.602L354.531,173.5z"
   id="path4"
   style="fill:#ecdbd0;fill-opacity:1" />
</svg>
